<svg xmlns="http://www.w3.org/2000/svg" width="492" height="492" viewBox="0 0 492 492" version="1.1">
	<path d="M 221.500 2.105 C 216.550 2.640, 205.908 4.399, 197.851 6.015 C 123.563 20.913, 61.025 68.832, 27.019 136.914 C 9.617 171.752, 1.629 205.854, 1.584 245.500 C 1.536 287.334, 9.540 320.637, 28.703 358.324 C 69.748 439.048, 154.666 491, 245.570 491 C 309.780 491, 370.490 466.478, 416.374 422.008 C 454.615 384.945, 478.913 338.518, 488.110 284.939 C 491.214 266.856, 491.497 227.908, 488.654 210 C 471.496 101.919, 389.168 20.042, 281 3.484 C 268.314 1.542, 234.053 0.748, 221.500 2.105 M 245.612 7 C 245.269 8.375, 239.816 34.475, 233.495 65 C 219.973 130.300, 221.146 125, 220.223 125 C 219.195 125, 211.694 113.585, 208.573 107.271 C 202.393 94.771, 199.464 83.813, 198.141 68.246 C 196.945 54.170, 193.766 46.636, 185.565 38.435 C 174.911 27.781, 158.720 23.275, 146.123 27.459 C 143.306 28.395, 141 29.503, 141 29.922 C 141 30.341, 142.871 31.244, 145.159 31.929 C 154.460 34.716, 163.623 43.416, 166.645 52.329 C 169.087 59.532, 168.869 73.067, 166.134 84.137 C 163.527 94.686, 163.284 109.449, 165.571 118.276 C 167.435 125.467, 171.780 134.391, 175.689 139.056 C 177.235 140.901, 177.825 142.003, 177 141.505 C 175.879 140.829, 98.394 90.138, 77.677 76.529 C 74.729 74.592, 74.449 74.150, 121.909 146.500 C 145.759 182.858, 145.283 180.798, 128.881 176.628 C 112.652 172.501, 98.223 164.797, 86.118 153.797 C 83.158 151.107, 78.883 147.958, 76.618 146.800 C 55.023 135.759, 26.284 145.141, 19.302 165.513 L 18.269 168.525 24.346 165.513 C 29.583 162.916, 31.533 162.500, 38.461 162.500 C 52.968 162.500, 62.022 168.748, 74.412 187.310 C 82.918 200.052, 89.850 207.295, 98.500 212.478 C 105.254 216.524, 115.391 219.966, 120.855 220.068 C 123.838 220.123, 124.137 220.296, 122.500 221.021 C 121.400 221.509, 95.075 227.166, 64 233.592 C 32.925 240.019, 7.188 245.552, 6.806 245.889 C 6.425 246.225, 33.134 252.117, 66.159 258.982 L 126.207 271.464 123.108 274.051 C 110.573 284.516, 84.311 293.939, 67.500 294.004 C 61.033 294.029, 53.072 296.176, 47.736 299.332 C 41.085 303.267, 33.501 311.547, 29.877 318.829 C 26.829 324.954, 26.555 326.277, 26.529 335 C 26.507 342.184, 26.951 345.475, 28.351 348.500 L 30.202 352.500 31.596 347.870 C 34.707 337.539, 43.557 328.397, 53.226 325.526 C 60.632 323.326, 73.806 323.590, 84 326.142 C 96.900 329.371, 111.083 329.163, 121.500 325.592 C 129.801 322.747, 134.899 320.108, 138.746 316.668 C 139.981 315.563, 141.153 314.848, 141.350 315.079 C 141.547 315.311, 126.952 337.991, 108.918 365.481 C 90.883 392.970, 76.278 415.611, 76.461 415.794 C 76.644 415.977, 99.790 401.052, 127.897 382.626 C 185.448 344.898, 181.035 346.725, 177.057 362.277 C 172.774 379.022, 166.147 391.670, 154.230 405.843 C 145.919 415.728, 143.087 422.048, 142.288 432.500 C 141.402 444.079, 145.300 455.899, 152.710 464.100 C 156.259 468.029, 162.449 472.184, 166.579 473.409 C 168.530 473.988, 168.471 473.640, 165.619 467.763 C 163.021 462.410, 162.576 460.338, 162.552 453.500 C 162.528 446.786, 162.961 444.606, 165.247 439.935 C 168.910 432.450, 176.454 425.042, 188.500 417.100 C 194 413.474, 200.595 408.444, 203.156 405.921 C 211.711 397.492, 218.236 385.241, 219.584 375.076 C 219.955 372.284, 220.546 370, 220.898 370 C 221.522 370, 224.897 385.647, 238.476 451.500 C 242.106 469.100, 245.396 484.286, 245.788 485.247 C 246.212 486.287, 251.537 462.699, 258.939 426.997 C 265.781 393.999, 271.752 367, 272.209 367 C 272.666 367, 274.998 370.038, 277.391 373.750 C 288.068 390.315, 292.361 403.063, 293.998 423.059 C 294.500 429.191, 295.700 435.822, 296.860 438.874 C 301.133 450.119, 312.899 461.111, 324.282 464.491 C 327.077 465.321, 332.351 466, 336.003 466 C 342.625 466, 352.428 463.501, 351.527 462.043 C 351.265 461.620, 349.127 460.735, 346.776 460.076 C 341.255 458.529, 333.802 453.090, 329.989 447.825 C 323.749 439.212, 322.331 425.474, 325.986 409.061 C 329.094 395.108, 329.491 387.529, 327.601 378.202 C 325.688 368.760, 323.291 362.737, 318.918 356.382 C 317.207 353.894, 315.967 351.700, 316.162 351.504 C 316.358 351.309, 332.939 361.927, 353.009 375.100 C 409.858 412.413, 417.189 417.118, 416.377 415.764 C 415.959 415.069, 400.657 391.663, 382.371 363.750 C 353.493 319.667, 349.429 313, 351.434 313 C 352.704 313, 358.189 314.125, 363.622 315.501 C 379.712 319.575, 394.493 327.567, 407.500 339.227 C 415.839 346.702, 424.406 349.987, 435.500 349.964 C 451.704 349.930, 465.840 341.935, 471.610 329.542 C 472.879 326.815, 473.756 324.423, 473.558 324.225 C 473.361 324.027, 470.792 325.123, 467.849 326.659 C 463.234 329.069, 461.334 329.455, 454 329.476 C 446.663 329.497, 444.711 329.112, 439.732 326.668 C 431.956 322.849, 425.338 316.152, 417.676 304.348 C 405.508 285.602, 391.936 275.514, 374.958 272.599 L 367.500 271.318 372.500 270.225 C 375.250 269.624, 401.913 264.042, 431.750 257.822 C 461.587 251.601, 485.999 246.284, 485.998 246.006 C 485.997 245.728, 463.609 240.860, 436.248 235.189 C 368.908 221.231, 367 220.815, 367 220.105 C 367 218.842, 379.765 210.937, 388 207.101 C 399.102 201.929, 409.891 199.213, 423.732 198.104 C 432.998 197.362, 436.110 196.669, 441.506 194.144 C 453.897 188.345, 463.772 175.352, 465.919 162.021 C 466.983 155.418, 466.695 152.303, 464.325 144.742 C 462.906 140.213, 461 139.136, 461 142.863 C 461 145.877, 456.131 154.535, 452.237 158.446 C 442.003 168.724, 427.970 170.818, 405.500 165.418 C 396.527 163.262, 382.323 163.218, 374.265 165.323 C 367.375 167.122, 359.239 170.958, 354.250 174.761 C 352.462 176.123, 351 177.007, 351 176.725 C 351 176.443, 365.548 154.002, 383.328 126.856 C 401.109 99.710, 415.982 76.944, 416.379 76.263 C 417.022 75.163, 398.421 87.169, 334.500 129.114 C 324.050 135.971, 314.887 141.958, 314.139 142.418 C 313.024 143.104, 312.909 142.299, 313.504 137.971 C 315.851 120.903, 325.263 100.812, 337.148 87.500 C 343.703 80.157, 345.605 77.110, 347.919 70.241 C 353.180 54.624, 348.181 34.576, 336.588 24.797 C 334.147 22.738, 324.809 17.857, 324.295 18.371 C 324.102 18.565, 325.194 21.148, 326.722 24.112 C 329.161 28.843, 329.498 30.597, 329.480 38.500 C 329.464 45.768, 329.031 48.370, 327.229 52.019 C 323.417 59.738, 316.259 66.832, 304.442 74.602 C 284.934 87.430, 275.079 100.953, 272.447 118.508 C 272.068 121.029, 271.546 122.879, 271.286 122.619 C 271.025 122.359, 265.283 95.675, 258.524 63.323 C 250.551 25.153, 246.017 5.378, 245.612 7" stroke="none" fill="black" fill-rule="evenodd"/>
</svg>