<svg id="Layer_1" data-name="Layer 1" xmlns="http://www.w3.org/2000/svg" viewBox="0 0 272 38"><title>Artboard 1</title><path d="M64.45,12.6c-.8-2.9-2-5.9-5.9-5.9a4.74,4.74,0,0,0-5,4.9c0,3.3,2.1,4.8,5.7,6.6S67,22.1,67,27.1c0,4.7-4,8.4-9.9,8.4a16.17,16.17,0,0,1-4.4-.7,22.35,22.35,0,0,1-2.2-.9,53,53,0,0,1-1.2-6.9l1.3-.3c.7,2.7,2.7,7.2,7.3,7.2,3.4,0,5.4-2.1,5.4-5.4s-2.5-4.9-5.8-6.7c-2.9-1.5-7.4-3.8-7.4-8.8,0-4.3,3.4-8,9.2-8a19.25,19.25,0,0,1,5.6,1c.2,1.6.4,3.4.8,6.2Z" fill="#fff"/><path d="M94.45,34.9V33.7c2.6-.3,3.1-.4,3.1-3.6V22.6c0-3.2-1.1-5.2-3.9-5.2a8.37,8.37,0,0,0-5,2.3,9.76,9.76,0,0,1,.1,1.9v8.7c0,2.8.4,3.1,2.9,3.4v1.2h-9.6V33.7c2.8-.3,3.2-.5,3.2-3.4V22.6c0-3.3-1.2-5.1-3.9-5.1-1.8,0-3.5,1.2-4.9,2.3V30.3c0,2.9.4,3.2,2.5,3.4v1.2h-9.4V33.7c2.9-.3,3.4-.5,3.4-3.4V21c0-2.9-.1-3.1-2.7-3.5v-1a29,29,0,0,0,6.2-1.8v3.6c.9-.6,1.9-1.4,3.3-2.3a6.79,6.79,0,0,1,3.7-1.2,5.36,5.36,0,0,1,5,3.7c1.3-1,2.6-1.8,3.7-2.5a6.32,6.32,0,0,1,3.4-1.2c3.5,0,5.7,2.5,5.7,6.8v8.6c0,3,.4,3.2,2.9,3.4v1.2h-9.7Z" fill="#fff"/><path d="M106.45,34.9V33.7c2.8-.3,3.1-.5,3.1-3.6V20.9c0-2.8-.1-2.9-2.8-3.4V16.4a29,29,0,0,0,6.3-1.7V30.1c0,3,.3,3.3,3.2,3.6v1.2Zm2.3-26.2a2.33,2.33,0,0,1,2.3-2.3,2.18,2.18,0,0,1,2.2,2.3A2.33,2.33,0,0,1,111,11,2.46,2.46,0,0,1,108.75,8.7Z" fill="#fff"/><path d="M126.75,34.8a4.94,4.94,0,0,1-1.9.6c-2.8,0-4.4-1.8-4.4-5.3v-13h-3.1l-.2-.4,1.2-1.3h2.1V12.1l2.9-2.9.6.1v6.1h5.1a1.18,1.18,0,0,1-.3,1.7H124V28.6c0,3.6,1.5,4.3,2.6,4.3a5.78,5.78,0,0,0,2.8-.8l.4,1.2Z" fill="#fff"/><path d="M143.85,34.9V33.7c2.6-.3,2.9-.5,2.9-3.4V22.9c0-3.7-1.4-5.5-4.4-5.5a5.92,5.92,0,0,0-4.6,2.3V30.3c0,2.9.2,3.2,2.9,3.4v1.2h-9.5V33.7c2.7-.2,3.1-.5,3.1-3.4V9c0-2.8-.1-3-3-3.3v-1a42.48,42.48,0,0,0,6.6-1.6v15c1.6-1.6,4-3.3,6.4-3.3,3.6,0,6.2,2.3,6.2,7.6v7.8c0,2.9.3,3.2,2.9,3.4v1.2h-9.5Z" fill="#fff"/><path d="M167,20.6c-.8-2.6-2.4-4.4-4.6-4.4a2.89,2.89,0,0,0-2.9,3.1c0,2,1.8,3,3.8,3.9,3.4,1.4,5.6,3,5.6,6.1,0,4.1-3.8,6.2-7.4,6.2a8.56,8.56,0,0,1-5.1-1.5,21.93,21.93,0,0,1-.7-5.3l1.2-.2c.8,2.9,2.8,5.5,5.5,5.5a3.14,3.14,0,0,0,3.2-3.1c0-2-1.3-3-3.5-4.1-2.7-1.3-5.6-2.7-5.6-6.2,0-3.1,2.7-5.8,6.8-5.8a10,10,0,0,1,4,.8,37.1,37.1,0,0,1,1,4.8Z" fill="#fff"/><path d="M191.75,24.8c0,7.2-5.3,10.6-9.7,10.6a9.7,9.7,0,0,1-9.8-9.9c0-7.4,5.7-10.7,9.8-10.7A9.72,9.72,0,0,1,191.75,24.8Zm-15.3-.7c0,5.6,2.5,9.8,6.1,9.8,2.8,0,5.1-2.1,5.1-8.2,0-5.2-2.1-9.5-6-9.5C178.85,16.3,176.45,19.1,176.45,24.1Z" fill="#fff"/><path d="M207,34.9V33.7c2.6-.3,2.9-.6,2.9-3.7V22.5c0-3.1-1.1-5.1-4.1-5.1a8,8,0,0,0-4.9,2.3V30.2c0,3,.3,3.2,2.9,3.5v1.2h-9.7V33.7c3-.3,3.3-.5,3.3-3.5V20.9c0-2.9-.3-3-2.7-3.4v-1a27.44,27.44,0,0,0,6.2-1.8v3.6c.9-.7,1.9-1.3,3-2.1a6.92,6.92,0,0,1,3.7-1.3c3.5,0,5.8,2.5,5.8,6.8v8.6c0,3,.2,3.2,2.8,3.5V35H207Z" fill="#fff"/><path d="M218.75,34.9V33.7c2.8-.3,3.1-.5,3.1-3.6V20.9c0-2.8-.1-2.9-2.8-3.4V16.4a29,29,0,0,0,6.3-1.7V30.1c0,3,.3,3.3,3.2,3.6v1.2Zm2.4-26.2a2.33,2.33,0,0,1,2.3-2.3,2.18,2.18,0,0,1,2.2,2.3,2.33,2.33,0,0,1-2.3,2.3A2.38,2.38,0,0,1,221.15,8.7Z" fill="#fff"/><path d="M245,35.4a3.87,3.87,0,0,1-2.1-.8,5.64,5.64,0,0,1-1.1-2c-1.8,1.2-3.9,2.9-5.3,2.9a5.4,5.4,0,0,1-5.4-5.5c0-2.2,1.2-3.6,3.6-4.4,2.7-.9,5.9-2.1,6.9-2.9v-.8c0-3.2-1.5-5.1-3.8-5.1a2.53,2.53,0,0,0-2,.9,6,6,0,0,0-1.3,2.9,1.27,1.27,0,0,1-1.3,1,2.23,2.23,0,0,1-2-1.9c0-.7.6-1.2,1.4-1.8a20.94,20.94,0,0,1,6.7-3.1A6.07,6.07,0,0,1,243,16c1.6,1.3,2,3.1,2,5.5v8.3c0,2,.8,2.7,1.6,2.7a3,3,0,0,0,1.6-.5l.4,1.2Zm-3.2-11.2c-.9.5-3.1,1.4-4,1.9-1.7.8-2.7,1.7-2.7,3.3a3.26,3.26,0,0,0,3.2,3.4,6.22,6.22,0,0,0,3.6-1.6v-7Z" fill="#fff"/><path d="M262.75,34.9V33.7c2.6-.3,2.9-.6,2.9-3.7V22.5c0-3.1-1.1-5.1-4.1-5.1a8,8,0,0,0-4.9,2.3V30.2c0,3,.3,3.2,2.9,3.5v1.2h-9.7V33.7c3-.3,3.3-.5,3.3-3.5V20.9c0-2.9-.3-3-2.7-3.4v-1a27.44,27.44,0,0,0,6.2-1.8v3.6c.9-.7,1.9-1.3,3-2.1a6.92,6.92,0,0,1,3.7-1.3c3.5,0,5.8,2.5,5.8,6.8v8.6c0,3,.2,3.2,2.8,3.5V35h-9.2Z" fill="#fff"/><circle cx="18.65" cy="19" r="18.6" fill="#1891cb"/><path d="M29.85,22.7a3.84,3.84,0,0,0-3.3-2.1h0l8-1.7-8-1.7h0a6,6,0,0,1,4-1.5c1.8,0,3.3-2.2,2.3-3.8,0,0-.3,2.6-3.6,1.7a3.71,3.71,0,0,0-3.8.9h0L30,7.6l-6.9,4.5h0a6.25,6.25,0,0,1,1.8-3.9c1.2-1.3.8-3.9-1.1-4.4,0,0,1.6,2-1.3,3.8a3.84,3.84,0,0,0-2.1,3.3h0l-1.7-8-1.7,8h0a6,6,0,0,1-1.5-4c0-1.8-2.2-3.3-3.8-2.3,0,0,2.6.3,1.7,3.6a3.71,3.71,0,0,0,.9,3.8h0L7.35,7.5h0l3.7,5.6.8,1.3h0A6.25,6.25,0,0,1,8,12.6c-1.3-1.2-3.9-.8-4.4,1.1,0,0,2-1.6,3.8,1.3a3.84,3.84,0,0,0,3.3,2.1h0l-8,1.7,8,1.7h0a6.66,6.66,0,0,1-4,1.5c-1.8,0-3.3,2.2-2.3,3.8,0,0,.3-2.6,3.6-1.7a3.71,3.71,0,0,0,3.8-.9h0l-4.5,6.9,6.9-4.5a6.25,6.25,0,0,1-1.8,3.9c-1.2,1.3-.8,3.9,1.1,4.4,0,0-1.6-2,1.3-3.8a3.84,3.84,0,0,0,2.1-3.3h0l1.7,8,1.7-8h0a6,6,0,0,1,1.5,4c0,1.8,2.2,3.3,3.8,2.3,0,0-2.6-.3-1.7-3.6a3.71,3.71,0,0,0-.9-3.8h0l6.9,4.5-2.4-3.6-2.1-3.2h0a6.25,6.25,0,0,1,3.9,1.8c1.3,1.2,3.9.8,4.4-1.1C33.55,24.1,31.55,25.7,29.85,22.7Z" fill="#f7ce17"/></svg>